PathFileType	4	(X/Y/Z)	/Users/itak/Documents/Research/Walk-IL/dataset/trc/00113_00007.trc
DataRate	CameraRate	NumFrames	NumMarkers	Units	OrigDataRate	OrigDataStartFrame	OrigNumFrames
100.000000	100.000000	4	53	mm	100.000000	0	579
Frame#	Time	RPSI			LPSI			L3			STRN			T10			C7			CLAV			RBAK			LBAK			LSHO			LUPA			LAEL			LAOL			LWTS			LWPS			LFRA			LIFD			LHPS			LHTS			RSHO			RUPA			RAEL			RAOL			RWTS			RWPS			RFRA			RIFD			RHTS			RHPS			RBHD			LFHD			RFHD			LBHD			LHIP			RHIP			RASI			LASI			LKNE			LTHI			LANK			LTIP			LTOE			LMT1			LMT5			LHEE			RKNE			RTHI			RANK			RTIP			RTOE			RMT1			RMT5			RHEE			
		X1	Y1	Z1	X2	Y2	Z2	X3	Y3	Z3	X4	Y4	Z4	X5	Y5	Z5	X6	Y6	Z6	X7	Y7	Z7	X8	Y8	Z8	X9	Y9	Z9	X10	Y10	Z10	X11	Y11	Z11	X12	Y12	Z12	X13	Y13	Z13	X14	Y14	Z14	X15	Y15	Z15	X16	Y16	Z16	X17	Y17	Z17	X18	Y18	Z18	X19	Y19	Z19	X20	Y20	Z20	X21	Y21	Z21	X22	Y22	Z22	X23	Y23	Z23	X24	Y24	Z24	X25	Y25	Z25	X26	Y26	Z26	X27	Y27	Z27	X28	Y28	Z28	X29	Y29	Z29	X30	Y30	Z30	X31	Y31	Z31	X32	Y32	Z32	X33	Y33	Z33	X34	Y34	Z34	X35	Y35	Z35	X36	Y36	Z36	X37	Y37	Z37	X38	Y38	Z38	X39	Y39	Z39	X40	Y40	Z40	X41	Y41	Z41	X42	Y42	Z42	X43	Y43	Z43	X44	Y44	Z44	X45	Y45	Z45	X46	Y46	Z46	X47	Y47	Z47	X48	Y48	Z48	X49	Y49	Z49	X50	Y50	Z50	X51	Y51	Z51	X52	Y52	Z52	X53	Y53	Z53	

1	0	450.5278015136719	1125.8271484375	-265.53662109375	450.9822692871094	1126.471069335938	-399.8532104492188	444.4349060058594	1157.093627929688	-334.8007507324219	652.4764404296875	1362.84033203125	-335.5450744628906	400.9394226074219	1305.476196289062	-337.4171142578125	426.0706481933594	1598.358764648438	-352.3722534179688	613.4755249023438	1497.381713867188	-339.4208679199219	378.78662109375	1411.983764648438	-265.5175476074219	421.0124816894531	1577.877563476562	-453.5779724121094	509.8945922851562	1567.683227539062	-519.9003295898438	492.1716613769531	1435.493774414062	-590.1998901367188	510.0256958007812	1216.771728515625	-609.9411010742188	442.3123474121094	1203.706787109375	-554.6726684570312	614.711669921875	962.5049438476562	-562.4761352539062	534.29248046875	933.9818725585938	-590.6414794921875	528.9002075195312	1100.895263671875	-612.6362915039062	630.4515991210938	768.0361328125	-536.7034301757812	564.7074584960938	859.1492309570312	-590.2025756835938	632.5208740234375	873.7125854492188	-572.630615234375	476.9526672363281	1580.800415039062	-168.9379119873047	459.5287475585938	1506.238891601562	-106.1898422241211	455.3707885742188	1211.383178710938	-90.13506317138672	461.9634094238281	1210.193359375	-186.458740234375	608.8268432617188	975.8446655273438	-83.17314147949219	532.097900390625	955.3902587890625	-62.93576431274414	479.4724731445312	1139.195556640625	-71.88508605957031	644.708740234375	782.5996704101562	-96.50442504882812	642.3938598632812	868.6631469726562	-73.36872863769531	573.2705688476562	857.6228637695312	-53.22238922119141	454.650390625	1768.824829101562	-270.5179443359375	605.4468383789062	1845.503295898438	-411.838623046875	609.3156127929688	1854.631958007812	-282.4942016601562	440.0009765625	1762.891235351562	-405.2350769042969	540.3182373046875	1036.906982421875	-507.0062561035156	576.9783935546875	1030.605712890625	-148.1811218261719	657.3582153320312	1104.358276367188	-201.52880859375	649.8275146484375	1105.226928710938	-468.629638671875	550.755859375	536.5472412109375	-478.0682983398438	535.3649291992188	681.5824584960938	-504.7886047363281	427.8590087890625	35.74238204956055	-469.1797485351562	443.1732482910156	292.1264038085938	-503.6343078613281	661.4017333984375	36.3597412109375	-414.7326965332031	580.2191162109375	42.68758392333984	-380.7119750976562	552.5818481445312	32.70561981201172	-497.03466796875	360.1173400878906	38.54828262329102	-407.0765686035156	553.4884643554688	538.1633911132812	-182.1484375	587.6170654296875	816.0309448242188	-154.8806457519531	439.5093078613281	29.30635070800781	-203.6244659423828	522.7542724609375	406.7191467285156	-171.2335357666016	674.55126953125	42.09956741333008	-243.3738555908203	615.9772338867188	29.98031616210938	-288.9401245117188	571.7607421875	37.8818473815918	-174.8357543945312	383.8859558105469	32.85062789916992	-255.39697265625	
2	0.01	450.4885864257812	1125.83447265625	-265.497802734375	450.8545837402344	1126.528442382812	-399.8339233398438	444.3796997070312	1157.092651367188	-334.7630004882812	652.5595092773438	1362.843505859375	-335.4833374023438	400.9872436523438	1305.52587890625	-337.36669921875	426.1959533691406	1598.40673828125	-352.3414611816406	613.6000366210938	1497.403198242188	-339.3903198242188	378.8472900390625	1412.05126953125	-265.4620666503906	421.1279602050781	1577.931396484375	-453.5354614257812	510.0521545410156	1567.721313476562	-519.8120727539062	492.30615234375	1435.533813476562	-590.1688232421875	510.1268615722656	1216.796264648438	-609.9261474609375	442.4608459472656	1203.734252929688	-554.6845703125	614.8421630859375	962.5372314453125	-562.4179077148438	534.4265747070312	934.0132446289062	-590.639892578125	529.0263061523438	1100.947998046875	-612.6005249023438	630.5713500976562	768.02783203125	-536.69921875	564.8380126953125	859.2002563476562	-590.1824340820312	632.5912475585938	873.7149047851562	-572.5994873046875	477.1152954101562	1580.854248046875	-168.8815612792969	459.7017211914062	1506.327758789062	-106.1172866821289	455.4754028320312	1211.455688476562	-89.99574279785156	462.0763244628906	1210.24658203125	-186.3063659667969	608.8334350585938	975.8650512695312	-83.10662078857422	532.13671875	955.4426879882812	-62.81252288818359	479.5726928710938	1139.315307617188	-71.73207092285156	644.6571044921875	782.6177368164062	-96.42157745361328	642.3735961914062	868.6817626953125	-73.29023742675781	573.232177734375	857.6759643554688	-53.10602569580078	454.7327880859375	1768.826416015625	-270.4934692382812	605.4876098632812	1845.505493164062	-411.8961791992188	609.3812866210938	1854.691284179688	-282.5486145019531	440.0925903320312	1762.830200195312	-405.2133178710938	540.3250732421875	1036.921752929688	-506.9659729003906	576.9190063476562	1030.599365234375	-148.1472930908203	657.3142700195312	1104.3486328125	-201.4760894775391	649.7984008789062	1105.233154296875	-468.5720520019531	550.7396240234375	536.5505981445312	-478.0502624511719	535.4470825195312	681.5209350585938	-504.7089233398438	427.8623352050781	35.73962783813477	-469.169677734375	443.155029296875	292.1238098144531	-503.6199645996094	661.3992919921875	36.35993194580078	-414.7315368652344	580.2186889648438	42.68254470825195	-380.7109985351562	552.5827026367188	32.70536804199219	-497.0346374511719	360.1182861328125	38.54331588745117	-407.0606079101562	553.45947265625	538.1690063476562	-182.1131591796875	587.572021484375	816.0216674804688	-154.8392639160156	439.5023803710938	29.30039596557617	-203.6189422607422	522.7213745117188	406.7182006835938	-171.2103729248047	674.5454711914062	42.10017013549805	-243.3721466064453	615.9761352539062	29.97843360900879	-288.9389343261719	571.7567749023438	37.88184356689453	-174.8291778564453	383.880859375	32.85135650634766	-255.3997497558594	
3	0.02	450.4348754882812	1125.841552734375	-265.4482727050781	450.7109069824219	1126.589965820312	-399.8011779785156	444.3020629882812	1157.091674804688	-334.7130737304688	652.6617431640625	1362.849975585938	-335.4058837890625	401.0434875488281	1305.590087890625	-337.3049621582031	426.3524169921875	1598.4677734375	-352.2994384765625	613.7539672851562	1497.430297851562	-339.3478088378906	378.9229125976562	1412.142822265625	-265.3930969238281	421.2637634277344	1578.00244140625	-453.4828796386719	510.2342224121094	1567.76953125	-519.7054443359375	492.4726257324219	1435.586791992188	-590.1292114257812	510.2611694335938	1216.827270507812	-609.9046630859375	442.6419067382812	1203.769897460938	-554.6915283203125	615.0106201171875	962.5843505859375	-562.3402709960938	534.5913696289062	934.0529174804688	-590.633056640625	529.188720703125	1101.017211914062	-612.5541381835938	630.7183227539062	768.04248046875	-536.6873168945312	565.0114135742188	859.264892578125	-590.1520385742188	632.6937866210938	873.727783203125	-572.5496826171875	477.3117065429688	1580.924072265625	-168.81201171875	459.9103393554688	1506.43798828125	-106.026611328125	455.5981750488281	1211.549438476562	-89.82662200927734	462.2037658691406	1210.317138671875	-186.12109375	608.83984375	975.8919677734375	-83.01987457275391	532.1790771484375	955.5087890625	-62.65713500976562	479.6900634765625	1139.464477539062	-71.54600524902344	644.5918579101562	782.6415405273438	-96.31630706787109	642.3436279296875	868.7093505859375	-73.19479370117188	573.180419921875	857.7471313476562	-52.96289825439453	454.8421325683594	1768.831909179688	-270.4599914550781	605.5419311523438	1845.5078125	-411.9657592773438	609.4655151367188	1854.764038085938	-282.6147155761719	440.2142028808594	1762.759521484375	-405.1820373535156	540.3281860351562	1036.942749023438	-506.9150085449219	576.8411254882812	1030.593139648438	-148.1048583984375	657.2542724609375	1104.338745117188	-201.4108428955078	649.7569580078125	1105.237426757812	-468.4972534179688	550.7203369140625	536.5560913085938	-478.0276489257812	535.5044555664062	681.463623046875	-504.62744140625	427.8647766113281	35.73682403564453	-469.1592102050781	443.1309814453125	292.1225891113281	-503.5950012207031	661.3973388671875	36.35876846313477	-414.7306213378906	580.2178955078125	42.67702102661133	-380.7095947265625	552.5833129882812	32.70528411865234	-497.0344543457031	360.1213684082031	38.53722381591797	-407.0417175292969	553.4261474609375	538.17529296875	-182.06884765625	587.5146484375	816.0134887695312	-154.7868041992188	439.4952392578125	29.2950325012207	-203.6133117675781	522.6817016601562	406.7156982421875	-171.1817016601562	674.5397338867188	42.10105133056641	-243.3704376220703	615.9755249023438	29.97835159301758	-288.9376525878906	571.7518310546875	37.88176345825195	-174.8211822509766	383.87646484375	32.85276031494141	-255.4020233154297	
4	0.03	450.3672485351562	1125.847290039062	-265.3899536132812	450.5624389648438	1126.6494140625	-399.7538757324219	444.2021484375	1157.0908203125	-334.6518249511719	652.77734375	1362.860473632812	-335.3161926269531	401.1040344238281	1305.667724609375	-337.2354431152344	426.5329284667969	1598.53955078125	-352.2461242675781	613.9297485351562	1497.461791992188	-339.2930603027344	379.0083923339844	1412.25732421875	-265.3138122558594	421.4101257324219	1578.088989257812	-453.4225158691406	510.4259338378906	1567.826049804688	-519.5869750976562	492.6629943847656	1435.65185546875	-590.082275390625	510.4269104003906	1216.86376953125	-609.875732421875	442.8444213867188	1203.813354492188	-554.6900634765625	615.2112426757812	962.647216796875	-562.2438354492188	534.7785034179688	934.0994873046875	-590.6180419921875	529.3818359375	1101.101196289062	-612.4983520507812	630.8887939453125	768.088623046875	-536.6666259765625	565.2239990234375	859.34033203125	-590.109375	632.83154296875	873.7560424804688	-572.47705078125	477.5299987792969	1581.007934570312	-168.7326049804688	460.142578125	1506.564331054688	-105.9209594726562	455.7305297851562	1211.662475585938	-89.63607788085938	462.3335876464844	1210.403198242188	-185.9141845703125	608.8449096679688	975.9248657226562	-82.91538238525391	532.220703125	955.5863647460938	-62.4749641418457	479.8153076171875	1139.635131835938	-71.33661651611328	644.5147094726562	782.6709594726562	-96.19232940673828	642.30322265625	868.7462768554688	-73.08824157714844	573.1165771484375	857.8349609375	-52.80002593994141	454.9762878417969	1768.8427734375	-270.4178771972656	605.609375	1845.509521484375	-412.0429382324219	609.5668334960938	1854.845947265625	-282.6884765625	440.3630676269531	1762.68505859375	-405.1409606933594	540.3248901367188	1036.969848632812	-506.8551025390625	576.74609375	1030.588012695312	-148.0556488037109	657.1795654296875	1104.330200195312	-201.3357086181641	649.702392578125	1105.23828125	-468.4066467285156	550.699462890625	536.5639038085938	-478.0010375976562	535.523681640625	681.4185180664062	-504.552978515625	427.8655700683594	35.73453140258789	-469.1492309570312	443.1029357910156	292.1230773925781	-503.5587158203125	661.3959350585938	36.3567008972168	-414.7301330566406	580.2171630859375	42.67123794555664	-380.7080993652344	552.5833740234375	32.70549774169922	-497.0340270996094	360.1271667480469	38.53026580810547	-407.0209350585938	553.3899536132812	538.181884765625	-182.0175476074219	587.4454956054688	816.0075073242188	-154.7251281738281	439.488525390625	29.29101371765137	-203.6085205078125	522.6376953125	406.7117614746094	-171.1486053466797	674.5350341796875	42.10217666625977	-243.3689422607422	615.9754028320312	29.98008918762207	-288.9363708496094	571.7461547851562	37.88156890869141	-174.8125915527344	383.8734130859375	32.85482406616211	-255.4034729003906	
